<?xml version="1.0" encoding="utf-8"?>
<!-- Generator: Adobe Illustrator 22.1.0, SVG Export Plug-In . SVG Version: 6.00 Build 0)  -->
<svg version="1.1" xmlns="http://www.w3.org/2000/svg" xmlns:xlink="http://www.w3.org/1999/xlink" x="0px" y="0px"
	 viewBox="0 0 360 360" style="enable-background:new 0 0 360 360;" xml:space="preserve">
<style type="text/css">
	.st0{fill-rule:evenodd;clip-rule:evenodd;fill:none;stroke:#000000;stroke-miterlimit:10;}
	.st1{fill:#EA8D13;}
	.st2{fill:none;}
	.st3{font-family:'MyriadPro-Regular';}
	.st4{font-size:18px;}
	.st5{fill:#0FD30F;}
</style>
<g id="Calque_1">
	<g>
		<path d="M181,28.7L276,68l39.3,95L276,258l-95,39.3L86,258l-39.3-95L86,68L181,28.7 M181,27.6L85.3,67.3L45.6,163l39.7,95.7
			l95.7,39.7l95.7-39.7l39.7-95.7l-39.7-95.7L181,27.6L181,27.6z"/>
	</g>
	<path d="M60.4,59.8l0.1,0.1c0.3,0.2,0.7,0.5,1.2,0.9c-0.9-0.9-1.3-2.3-1.1-4.2l0.2-1.3c0-0.1,0-0.2-0.1-0.3
		c-0.1-0.1-0.1-0.2-0.1-0.3c0-0.3-0.1-0.4-0.2-0.5c-0.1-0.1-0.1-0.1-0.2-0.2c-0.3-0.3-0.5-0.6-0.6-0.9c-0.3-0.6-0.1-1.4,0.5-2.3
		c0.2-0.3,0.1-0.6-0.1-1c-0.3-0.4-0.4-0.6-0.4-0.7c0-0.1-0.1-0.2-0.2-0.3c-0.1-0.1-0.2-0.2-0.1-0.3c0-0.2,0-0.3-0.2-0.3
		c-0.1-0.1-0.2-0.1-0.3-0.2c-0.3-0.1-0.4-0.4-0.3-0.7c0-0.3,0-0.6-0.1-0.7c-1.1,1.9-1.6,3.9-1.5,6.2c0.2,2.2,0.9,4.2,2.3,5.8
		l0.1,0.1v0.1h0.1c0.2,0.3,0.4,0.5,0.5,0.6c0.1,0.1,0.2,0.2,0.3,0.3c0.1,0.1,0.2,0.2,0.2,0.2L60.4,59.8z M62.6,61.3l0.4,0.2
		c0.2,0.1,0.4,0.1,0.5,0.2c0.7,0.3,1.4,0.4,2.3,0.5c1.6,0.2,3.1,0,4.4-0.4c1-0.3,1.7-0.7,2.3-1.1c0.1-0.1,0.2-0.3,0.3-0.6
		c0.1-0.4,0.2-0.6,0.2-0.6c0.1-0.2,0.2-0.6,0.2-1.2c0-0.6,0.2-1,0.5-1.3c0.2-0.2,0.3-0.4,0.3-0.6c0-0.2,0-0.4,0-0.6
		C74,55.4,74,55.2,74,55.1c0-0.1,0.1-0.3,0.2-0.7s0.1-0.6,0.1-0.9c0-0.1-0.1-0.1-0.2,0c-0.1,0.1-0.2,0-0.3,0
		c-0.1-0.1-0.2-0.2-0.4-0.2c-0.2,0-0.4,0-0.6,0c-0.2,0-0.4,0.1-0.5,0.1c-0.4-0.1-1-0.5-1.8-1.2c-0.1-0.1-0.1-0.6,0.1-1.4
		c0-0.1,0.1-0.4,0.1-0.8c0-0.4,0.1-0.7,0.2-0.9c0.1-0.2,0.3-0.3,0.7-0.4c0.1,0,0.2-0.1,0.3-0.3c0.1-0.2,0.2-0.3,0.2-0.3
		c0.1,0,0.2-0.1,0.4-0.1s0.3-0.1,0.4-0.1c0.2,0,0.4,0,0.7,0c0.3,0.1,0.5,0.1,0.7,0.1c0.3,0,0.6,0.2,1.2,0.6c0.1,0.1,0.2,0.2,0.3,0.2
		c0.1,0,0.3,0,0.4,0s0.3,0,0.4,0.1c0.1,0,0.1-0.2-0.1-0.4c-0.1-0.1-0.2-0.1-0.4-0.1c-0.3-0.1-0.7-0.3-1.1-0.8
		c-0.4-0.4-0.7-0.7-0.9-0.8c-0.3-0.1-0.4-0.1-0.6,0l0.1,0.6c0,0-0.2,0.1-0.7,0.3c-0.3,0.1-0.6-0.1-0.9-0.5c-0.2-0.3-0.1-0.5,0.1-0.6
		h0.2c0.1,0,0.1-0.1,0.2-0.1c0.1,0,0.2,0,0.3-0.1c0.1,0,0.2-0.1,0.3-0.1c0.1,0,0.1-0.1,0.2-0.1c0.1-0.1,0.1-0.1,0.2-0.2s0-0.1,0-0.2
		s-0.1-0.2-0.1-0.4c0-0.2-0.1-0.3-0.2-0.4c-0.1,0-0.3-0.1-0.4-0.2c-0.1-0.1-0.3-0.2-0.4-0.2c-0.2,0-0.3-0.3-0.3-0.8
		c0-0.3,0.1-0.4,0.3-0.4c0.1,0,0.1,0,0.2,0c-0.9-0.6-1.9-1-3.1-1.3c-0.1,0.4-0.3,0.6-0.4,0.6c-0.3,0.1-0.4,0.1-0.5,0.2
		c-0.1,0.1-0.2,0.2-0.3,0.3c-0.1,0.2-0.2,0.3-0.3,0.3s-0.2,0.1-0.2,0.2c-0.1,0.1-0.2,0-0.3-0.1c-0.1-0.1-0.2-0.2-0.3-0.5
		c-0.1-0.2-0.1-0.5,0-0.8c0.1-0.3,0.1-0.6,0.1-0.7H67h-0.2c0.3,0.5,0.1,0.8-0.4,1c-0.1,0-0.3,0-0.5-0.1c-0.2-0.1-0.3-0.1-0.5-0.1
		c-0.1,0-0.2,0-0.3-0.1c-0.1-0.1-0.2-0.1-0.3,0c-0.5,0.2-0.7,0.4-0.8,0.6c-0.1,0.3,0,0.5,0.2,0.6c0.2,0.1,0.4,0,0.6-0.2
		c0.5-0.5,0.9-0.6,1.3-0.3c0.2,0.1,0.3,0.4,0.3,0.8c0,0.1,0,0.3,0,0.4c0,0.1-0.1,0.2-0.1,0.3c-0.1,0.1-0.2,0.2-0.3,0.1
		c0,0-0.1,0-0.2-0.1s-0.2-0.1-0.2-0.1c0,0-0.1,0-0.2,0c-0.1,0.1-0.6,0.2-1.6,0.5c-0.2,0-0.5,0.1-0.8,0.2c-0.3,0.1-0.5,0.2-0.6,0.2
		c-0.4,0.1-0.6,0.4-0.6,0.6c0,0.5-0.1,0.8-0.2,0.8c-0.1,0-0.2,0-0.2-0.2c-0.1-0.2-0.2-0.4-0.4-0.6c-0.2-0.2-0.3-0.3-0.6-0.2
		c-0.4,0-0.7,0.2-1,0.5c-0.3,0.3-0.4,0.6-0.3,1c0,0.1,0.2,0.1,0.4,0.2c0.2,0.1,0.4,0.1,0.4,0.2s0,0.2-0.3,0.4c0,0.1,0,0.2,0,0.3
		c0,0.1,0,0.3,0.1,0.5c0,0.2,0.1,0.3,0.1,0.3c0,0.3,0.2,0.4,0.4,0.6c0.3,0.1,0.5,0.1,0.7-0.1c0.2-0.2,0.4-0.2,0.8-0.1
		c1.4,0.8,2.2,1.2,2.4,1.4c0.1,0.1,0.2,0.3,0.4,0.8c0.2,0.4,0.4,0.7,0.5,0.8c0,0,0.2,0.1,0.6,0.3c0.4,0.1,0.6,0.3,0.8,0.5
		c0.1,0.2,0.2,0.4,0,0.7s-0.3,0.4-0.5,0.6c-0.1,0-0.2,0.3-0.4,0.8c-0.2,0.5-0.4,0.7-0.4,0.8c-0.1,0.1-0.4,0.2-0.9,0.4
		c0,0-0.1,0-0.2,0.1c-0.1,0.1-0.1,0.2-0.2,0.3c-0.1,0.1-0.1,0.2-0.1,0.2c-0.1,0.1-0.2,0.2-0.4,0.5s-0.4,0.4-0.5,0.5
		c-0.8,0.6-1.1,1.4-1,2.4C62.1,60.8,62.3,61.1,62.6,61.3z M58.5,43.5c2.4-2.4,5.2-3.5,8.5-3.5c3.3,0,6.2,1.2,8.5,3.5
		c2.3,2.3,3.5,5.2,3.5,8.5s-1.2,6.2-3.5,8.5C73.2,62.8,70.3,64,67,64c-3.3,0-6.2-1.2-8.5-3.5S55,55.3,55,52S56.2,45.9,58.5,43.5z
		 M72.4,45c0.2,0.5,0.3,0.7,0.2,0.8c-0.1,0.1-0.2,0.1-0.3,0.1s-0.3-0.1-0.3-0.3c0-0.1-0.1-0.2-0.1-0.3l-0.1-0.2h-0.2
		c-0.2,0.1-0.3,0-0.3-0.2c0-0.1,0.1-0.1,0.3-0.2c0,0,0-0.1-0.1-0.1c0-0.2,0-0.3,0.2-0.3C71.9,44.4,72.2,44.6,72.4,45z"/>
	<path d="M289.6,60.3l-2.9,1.1c-0.1,0-0.1,0-0.2,0c-0.1,0-0.1-0.1-0.1-0.1c-0.2-0.2-0.4-0.5-0.6-0.7c-0.2-0.2-0.5-0.5-0.9-0.7
		c-0.3-0.2-0.7-0.4-1-0.6c-0.3-0.2-0.6-0.3-0.9-0.4c-0.1,0-0.1,0-0.1-0.1c0,0-0.1-0.1-0.1-0.1l0.2-3l0.8-1.1c0,0,0.4,0,1.1,0.1
		c0.8,0.1,1.7,0.5,2.8,1.3c1.1,0.8,1.8,1.6,2.1,2.3c0.3,0.7,0.4,1,0.4,1L289.6,60.3z M297.5,42.4c-1.3-1-2.4-1.5-3.3-1.6
		c-0.9-0.1-1.5-0.2-1.9-0.1c-0.1,0-0.2,0.1-0.3,0.1c-0.1,0.1-0.1,0.1-0.2,0.2l-9.6,13.2c-0.2,0.3-0.4,0.6-0.5,0.9
		c-0.1,0.3-0.2,0.6-0.2,1l-0.4,7.8c0,0.3,0.1,0.5,0.3,0.7c0.2,0.2,0.5,0.2,0.7,0.1l7.3-2.8c0.3-0.1,0.6-0.3,0.9-0.5
		c0.3-0.2,0.5-0.4,0.7-0.7l9.6-13.2c0.1-0.1,0.1-0.2,0.1-0.3s0-0.2,0-0.3c-0.1-0.4-0.3-0.9-0.7-1.8
		C299.7,44.3,298.8,43.4,297.5,42.4z"/>
	<path d="M345.6,163.5l-4-4.3h4V163.5z M337,169.5c-1.4,0-2.6-0.5-3.6-1.5s-1.5-2.2-1.5-3.6c0-1.4,0.5-2.6,1.5-3.6
		c1-1,2.2-1.5,3.6-1.5s2.6,0.5,3.6,1.5c1,1,1.5,2.2,1.5,3.6c0,1.4-0.5,2.6-1.5,3.6S338.4,169.5,337,169.5z M327.6,171.2
		c-0.2,0-0.4-0.1-0.6-0.3s-0.3-0.4-0.3-0.6v-7.7h1.7v-1.7h-1.7v-0.9c0-0.2,0.1-0.4,0.3-0.6s0.4-0.3,0.6-0.3h4.9
		c-0.1,0.1-0.1,0.1-0.2,0.1c-0.1,0-0.1,0.1-0.2,0.1c-0.7,0.7-1.2,1.4-1.5,2.3c-0.3,0.8-0.5,1.7-0.5,2.6c0,0.9,0.2,1.7,0.5,2.6
		c0.3,0.9,0.8,1.6,1.5,2.3l2,2H327.6z M334.4,155.8h5.1l1.7,1.7h-8.6L334.4,155.8z M347.3,157.5h-3.4l-3.4-3.4h-6.9l-3.4,3.4h-3.4
		c-0.5,0-0.9,0.2-1.2,0.5c-0.3,0.3-0.5,0.7-0.5,1.2v12c0,0.5,0.2,0.9,0.5,1.2c0.3,0.3,0.7,0.5,1.2,0.5h20.6c0.5,0,0.9-0.2,1.2-0.5
		c0.3-0.3,0.5-0.7,0.5-1.2v-12c0-0.5-0.2-0.9-0.5-1.2C348.2,157.7,347.8,157.5,347.3,157.5z M337,160.9c-0.9,0-1.8,0.3-2.4,1
		c-0.7,0.7-1,1.5-1,2.4c0,0.9,0.3,1.8,1,2.4s1.5,1,2.4,1c0.1,0,0.1,0,0.2,0c0.1,0,0.2,0,0.2,0c-0.6-0.1-1.1-0.4-1.6-0.9
		c-0.4-0.5-0.6-1-0.6-1.7c0-0.7,0.3-1.3,0.8-1.8c0.5-0.5,1.1-0.8,1.8-0.8c0.7,0,1.2,0.2,1.7,0.6c0.5,0.4,0.8,0.9,0.9,1.6
		c0-0.1,0-0.1,0-0.2c0-0.1,0-0.2,0-0.2c0-0.9-0.3-1.8-1-2.4C338.8,161.3,337.9,160.9,337,160.9z"/>
	<path d="M298.3,278.5l-1.7-1.7v-3.4l1.7-1.7V278.5z M289.7,269.9c-0.9,0-1.8-0.3-2.4-1s-1-1.5-1-2.4s0.3-1.8,1-2.4s1.5-1,2.4-1
		c0.9,0,1.8,0.3,2.4,1s1,1.5,1,2.4s-0.3,1.8-1,2.4S290.7,269.9,289.7,269.9z M293.1,275.6c-0.4-0.4-0.9-0.9-1.3-1.3
		c-0.4-0.4-0.6-0.6-0.7-0.7c-0.1-0.1-0.2-0.1-0.3-0.2s-0.2-0.1-0.3-0.1h-5.1c-0.2,0-0.4,0.1-0.6,0.3s-0.3,0.4-0.3,0.6v5.1
		c0,0.1,0,0.2,0.1,0.3c0,0.1,0.1,0.2,0.2,0.3c0,0,0.2,0.2,0.7,0.6c0.4,0.4,0.9,0.9,1.4,1.3h-3.1c-0.2,0-0.4-0.1-0.6-0.3
		s-0.3-0.4-0.3-0.6v-8.6c0-0.2,0.1-0.4,0.3-0.6c0.2-0.2,0.4-0.3,0.6-0.3h8.6c0.2,0,0.4,0.1,0.6,0.3c0.2,0.2,0.3,0.4,0.3,0.6V275.6z
		 M289.7,278.5h-3.4v-3.4h3.4V278.5z M281.1,268.2c-0.5,0-0.9,0.2-1.2,0.5c-0.3,0.3-0.5,0.7-0.5,1.2s0.2,0.9,0.5,1.2
		c0.3,0.3,0.7,0.5,1.2,0.5v1.7c-0.9,0-1.8-0.3-2.4-1s-1-1.5-1-2.4c0-0.9,0.3-1.8,1-2.4s1.5-1,2.4-1s1.8,0.3,2.4,1s1,1.5,1,2.4h-1.7
		c0-0.5-0.2-0.9-0.5-1.2C282,268.4,281.6,268.2,281.1,268.2z M298.3,269.9l-3.4,3.4v-1.7c0-0.4-0.1-0.8-0.4-1.1s-0.6-0.5-1-0.6
		c0.4-0.4,0.7-1,1-1.6c0.2-0.6,0.4-1.2,0.4-1.9c0-1.4-0.5-2.6-1.5-3.6s-2.2-1.5-3.6-1.5c-1.4,0-2.5,0.5-3.5,1.4s-1.5,2-1.6,3.4
		c-0.5-0.4-1-0.7-1.6-1c-0.6-0.2-1.2-0.3-1.9-0.3c-1.4,0-2.6,0.5-3.6,1.5s-1.5,2.2-1.5,3.6c0,1.4,0.5,2.6,1.5,3.6
		c1,1,2.2,1.5,3.6,1.5h-1.7v3.4h1.7v3.4c0,0.5,0.2,0.9,0.5,1.2c0.3,0.3,0.7,0.5,1.2,0.5h10.3c0.5,0,0.9-0.2,1.2-0.5
		c0.3-0.3,0.5-0.7,0.5-1.2v-1.7l3.4,3.4h1.7v-13.7H298.3z M289.7,264.8c-0.5,0-0.9,0.2-1.2,0.5s-0.5,0.7-0.5,1.2s0.2,0.9,0.5,1.2
		s0.7,0.5,1.2,0.5s0.9-0.2,1.2-0.5s0.5-0.7,0.5-1.2s-0.2-0.9-0.5-1.2S290.2,264.8,289.7,264.8z"/>
	<path d="M189.2,323.8l-7.6,3.8v-10l8.2-4.1v9.4c0,0.2-0.1,0.4-0.2,0.5C189.6,323.6,189.4,323.7,189.2,323.8z M171.9,323.8
		c-0.1-0.1-0.3-0.3-0.4-0.4c-0.1-0.2-0.1-0.3-0.1-0.5v-9.4l8.2,4.1v10L171.9,323.8z M180.2,308c0,0,0.1-0.1,0.2-0.1
		c0.1,0,0.2,0,0.2,0c0.1,0,0.2,0,0.2,0c0.1,0,0.1,0,0.2,0.1l7.6,3.8l-8,4l-8-4L180.2,308z M190.2,310.4l-8.2-4.1
		c-0.4-0.2-0.8-0.3-1.3-0.3c-0.5,0-1,0.1-1.4,0.3l-8.2,4.1c-0.5,0.3-0.9,0.6-1.2,1.1c-0.3,0.5-0.4,1-0.4,1.6v9.7
		c0,0.6,0.1,1.1,0.4,1.6c0.3,0.5,0.7,0.9,1.3,1.2l8.2,4.1c0.2,0.1,0.4,0.2,0.6,0.2c0.2,0.1,0.5,0.1,0.7,0.1c0.3,0,0.5,0,0.7-0.1
		c0.2-0.1,0.4-0.1,0.6-0.2l8.2-4.1c0.5-0.3,0.9-0.6,1.2-1.1c0.3-0.5,0.5-1,0.5-1.6v-9.7c0-0.6-0.1-1.1-0.4-1.6
		S190.7,310.7,190.2,310.4z"/>
	<path d="M60.7,281.5c-0.1,0.1-0.2,0.3-0.2,0.5s0.1,0.3,0.2,0.5l1.2,1.1c0.1,0.1,0.3,0.2,0.4,0.1s0.3-0.1,0.4-0.2l5.9-5.8l-1.8-2.1
		L60.7,281.5z M81.4,265.1c0-0.3-0.1-0.4-0.3-0.4c-0.1,0-0.2,0.1-0.3,0.2c-0.1,0.1-0.3,0.4-0.5,0.8s-0.5,0.7-0.6,1
		c-0.1,0.2-0.4,0.5-0.8,0.8c-0.4,0.3-0.9,0.2-1.6-0.3c-0.7-0.5-1-0.9-0.9-1.3s0.2-0.6,0.3-0.8c0.1-0.2,0.3-0.6,0.6-1.1
		s0.4-0.8,0.5-0.8c0.1-0.1,0.1-0.2,0-0.4c-0.1-0.2-0.2-0.2-0.4-0.1c-0.2,0.1-0.8,0.4-1.7,0.9c-0.9,0.5-1.5,1.1-1.7,1.8
		c-0.2,0.8-0.2,1.5-0.2,2.2s-0.2,1.4-0.9,2l-1.6,1.7l1.6,1.9l2-1.9c0.2-0.3,0.6-0.5,1-0.6s0.9-0.2,1.4-0.1c1,0.2,1.8,0.2,2.3-0.1
		c0.6-0.3,1-0.8,1.3-1.4c0.3-0.5,0.5-1.3,0.5-2.2C81.5,266,81.4,265.4,81.4,265.1z M68.1,269.9c-0.1-0.1-0.2-0.1-0.2-0.1
		s-0.2,0-0.2,0.1l-1.7,1.5c-0.1,0.1-0.1,0.1-0.1,0.2c0,0.1,0,0.2,0.1,0.3l10,11.4c0.1,0.1,0.3,0.2,0.4,0.2s0.3,0,0.5-0.1l1.2-1
		c0.1-0.1,0.2-0.3,0.2-0.4s0-0.3-0.2-0.5L68.1,269.9z M61.2,269.3c0.5-0.4,1.1-0.5,1.6-0.3c0.5,0.3,1.1,0.7,1.7,1.5
		c0.1,0.1,0.1,0.1,0.2,0c0.1-0.1,0.2-0.1,0.2-0.2c0.1,0,0.4-0.3,0.9-0.8c0.6-0.5,0.9-0.8,0.9-0.8c0,0,0.1-0.1,0.1-0.1
		c0-0.1,0-0.1-0.1-0.2c-0.1-0.1-0.2-0.2-0.4-0.5s-0.4-0.5-0.5-0.7c-0.5-0.7-0.6-1.4,0-1.9s1.2-1.1,2-1.5c0.8-0.4,1.5-0.8,2.2-1
		c0.7-0.2,0.8-0.4,0.5-0.4c-0.3,0-0.9,0-1.9,0c-0.9,0-1.5,0-1.7,0c-0.8,0.1-1.6,0.4-2.4,0.9c-0.9,0.5-1.5,1-2,1.3
		c-0.6,0.4-1.1,0.8-1.4,1c-0.3,0.3-0.4,0.4-0.5,0.4c-0.2,0.2-0.3,0.4-0.3,0.7c0,0.3-0.1,0.6-0.4,0.9c-0.4,0.3-0.7,0.4-0.9,0.4
		c-0.2-0.1-0.4,0-0.6,0.1c-0.1,0.1-0.3,0.2-0.5,0.4s-0.4,0.3-0.4,0.4c-0.1,0.1-0.1,0.1-0.1,0.3c0,0.1,0,0.2,0.1,0.3
		c0,0,0.3,0.3,0.8,0.9c0.5,0.6,0.8,0.9,0.9,1c0.1,0.1,0.2,0.1,0.3,0.2c0.1,0,0.3,0,0.4-0.1c0.1-0.1,0.3-0.2,0.5-0.4
		c0.2-0.2,0.3-0.3,0.4-0.3c0,0,0.1-0.2,0.1-0.6C60.8,269.7,60.9,269.5,61.2,269.3z"/>
	<path d="M30.1,167.4h-6.9v-1.7h6.9V167.4z M16.4,165.7l3.4-3.4l-3.4-3.4l1.7-1.7l5.1,5.1l-5.1,5.1L16.4,165.7z M35.3,153.7H14.7
		c-0.5,0-0.9,0.2-1.2,0.5s-0.5,0.7-0.5,1.2v17.1c0,0.5,0.2,0.9,0.5,1.2c0.3,0.3,0.7,0.5,1.2,0.5h20.6c0.5,0,0.9-0.2,1.2-0.5
		c0.3-0.3,0.5-0.7,0.5-1.2v-17.1c0-0.5-0.2-0.9-0.5-1.2S35.8,153.7,35.3,153.7z"/>
	<path d="M187.1,10.6c-0.9,0-1.7-0.3-2.3-1c-0.6-0.6-1-1.4-1-2.3s0.3-1.7,1-2.3c0.6-0.6,1.4-1,2.3-1s1.7,0.3,2.3,1
		c0.6,0.6,1,1.4,1,2.3s-0.3,1.7-1,2.3C188.7,10.3,187.9,10.6,187.1,10.6z M178.4,10.6c-0.9,0-1.7-0.3-2.3-1c-0.6-0.6-1-1.4-1-2.3
		s0.3-1.7,1-2.3c0.6-0.6,1.4-1,2.3-1s1.6,0.3,2.3,1s0.9,1.4,0.9,2.3s-0.3,1.7-0.9,2.3S179.3,10.6,178.4,10.6z M178.4,12.8
		c1,0,2,0.1,3.1,0.4c1.1,0.3,2.2,0.7,3.1,1.3s1.4,1.3,1.4,2.1v2.7h-15.3v-2.7c0-0.8,0.5-1.5,1.4-2.1c1-0.6,2-1.1,3.1-1.3
		S177.4,12.8,178.4,12.8z M187.1,12.8c1,0,2,0.1,3.1,0.4s2.2,0.7,3.1,1.3c1,0.6,1.4,1.3,1.4,2.1v2.7h-6.5v-2.7
		c0-1.5-0.7-2.8-2.1-3.8C186.3,12.8,186.6,12.8,187.1,12.8z"/>
	<line class="st0" x1="180.5" y1="27.5" x2="180.5" y2="298.5"/>
	<line class="st0" x1="275.5" y1="67.5" x2="85.5" y2="258.5"/>
	<line class="st0" x1="85.5" y1="67.5" x2="275.5" y2="258.5"/>
	<line class="st0" x1="316.5" y1="162.5" x2="45.5" y2="162.5"/>
</g>
<g id="Calque_3">
	<rect x="7" y="332" class="st1" width="34" height="9"/>
	<rect x="44" y="306" class="st2" width="101" height="18.7"/>
	<text transform="matrix(1 0 0 1 44 318.7803)" class="st3 st4">Aujourd’hui</text>
	<rect x="45" y="330" class="st2" width="67" height="18.7"/>
	<text transform="matrix(1 0 0 1 45 342.7803)" class="st3 st4">Objectif</text>
	<polygon class="st1" points="62,163 129,111 180,94 227,116 255,162 240,222 181,286 98,246 	"/>
</g>
<g id="Calque_2">
	<polygon class="st5" points="181,110 207.5,135.5 233.5,162.5 220.5,202.5 180.5,217.5 127,217 146.5,162.5 137,119 	"/>
	<rect x="8" y="307" class="st5" width="34" height="9"/>
</g>
</svg>
